<svg xmlns="http://www.w3.org/2000/svg" viewBox="0 0 64 64">
  <rect width="64" height="64" rx="14" fill="#1a1a2e"/>
  <g transform="translate(16, 4) scale(0.52)">
    <path d="M38.5 2C36.8 3.2 35 5.8 34 8c-1.2 2.5-2 5.5-2.5 8-.8 3.5-1.5 7-2.8 10.5-1.5 4-3.2 7.5-5 11-2 3.8-4 7.5-5.5 11.5-1.5 4-2.5 8-3 12-.5 3.5-.2 7 .5 10.5.8 3.5 2 6.8 4 9.5 2 2.8 4.5 5 7.5 6.5 2.5 1.2 5.2 2 8 2.2 3 .2 6-.2 8.8-1.2 2.5-.8 4.8-2.2 6.5-4 2-2 3.2-4.5 4-7 .8-2.5 1-5.2.8-8-.2-3-1-6-2-8.8-1.2-3-2.8-5.8-4.2-8.5-1.5-3-2.8-6-3.8-9-.8-2.5-1.5-5.2-2-8-.5-3.2-.5-6.5 0-9.8.5-3.5 1.5-6.8 3-9.8 1.2-2.5 2.8-5 4.5-7 1.5-1.5 2.8-3.2 3.2-5.2.2-1-.2-2-1-2.5-.8-.5-1.8-.2-2.5.2z" fill="#3b82f6"/>
  </g>
</svg>
